<?xml version="1.0" standalone="no"?>
<!DOCTYPE svg PUBLIC "-//W3C//DTD SVG 20010904//EN"
 "http://www.w3.org/TR/2001/REC-SVG-20010904/DTD/svg10.dtd">
<svg version="1.0" xmlns="http://www.w3.org/2000/svg"
 width="512.000000pt" height="512.000000pt" viewBox="0 0 512.000000 512.000000"
 preserveAspectRatio="xMidYMid meet">

<g transform="translate(0.000000,512.000000) scale(0.100000,-0.100000)"
fill="#000000" stroke="none">
<path d="M2945 4927 l-35 -35 0 -585 c0 -627 3 -685 49 -829 l28 -86 -96 -27
c-868 -245 -1543 -999 -1695 -1895 -29 -174 -35 -292 -36 -704 l0 -408 -172 4
c-153 4 -181 8 -239 30 -183 68 -302 192 -365 378 -18 53 -19 110 -19 1305 0
1187 1 1254 19 1320 69 260 246 472 488 584 104 49 194 71 311 78 110 6 143
17 162 54 19 35 19 63 0 98 -23 45 -61 55 -178 48 -462 -29 -849 -348 -975
-805 l-27 -97 0 -1275 c0 -1205 1 -1279 18 -1339 78 -275 274 -473 552 -557
57 -18 159 -19 1950 -21 1416 -3 1897 0 1918 8 48 20 60 59 55 179 -7 129 -35
218 -102 319 -79 118 -207 211 -337 245 l-54 13 -2 534 -3 534 61 34 c194 112
349 318 410 546 18 65 23 118 26 285 l5 205 44 47 c96 103 177 256 222 418
l26 95 4 624 c2 467 0 632 -9 653 -20 48 -85 71 -132 47 -11 -7 -123 -94 -249
-194 l-228 -183 -70 24 c-212 71 -468 72 -666 0 l-68 -25 -238 191 c-276 220
-291 227 -353 165z m385 -451 c79 -63 156 -118 171 -121 18 -4 51 4 99 24 107
46 173 61 295 68 133 7 238 -11 364 -63 58 -24 92 -33 111 -29 15 3 110 71
210 151 l181 145 -3 -503 c-4 -482 -5 -506 -26 -575 -32 -105 -65 -174 -123
-258 -124 -180 -316 -302 -535 -340 -110 -19 -169 -19 -280 0 -317 56 -558
276 -656 598 -21 69 -22 92 -26 576 l-3 504 38 -31 c21 -16 103 -82 183 -146z
m-130 -1399 c182 -192 418 -301 681 -314 186 -9 359 26 520 108 l62 31 -6
-109 c-7 -132 -25 -203 -77 -309 -65 -134 -195 -257 -335 -319 -92 -41 -85 16
-85 -717 l0 -648 28 -30 c24 -26 37 -32 106 -40 96 -12 169 -44 232 -102 70
-64 112 -142 128 -235 l6 -33 -349 0 -349 0 -7 57 c-16 130 -75 245 -179 349
-55 55 -91 80 -156 112 -108 51 -162 62 -315 62 l-124 0 25 54 c121 265 31
625 -204 811 -76 61 -203 122 -293 141 -90 19 -268 14 -346 -10 -118 -37 -141
-159 -38 -202 27 -11 40 -11 86 1 190 51 370 6 501 -125 182 -182 193 -466 25
-674 -26 -33 -50 -70 -53 -82 -8 -32 23 -90 54 -103 15 -6 130 -12 267 -14
220 -2 245 -5 295 -25 131 -52 232 -178 253 -314 l6 -38 -850 0 -849 0 0 221
0 221 -29 29 c-41 41 -101 41 -142 0 l-29 -29 0 -221 0 -221 -151 0 -151 0 5
458 c5 503 9 554 72 797 71 278 202 547 375 775 77 102 246 278 350 365 227
190 513 339 803 420 l122 34 25 -32 c14 -18 54 -63 90 -100z"/>
<path d="M3410 4111 c-118 -36 -185 -116 -156 -185 28 -68 93 -85 156 -41 58
40 88 41 140 6 67 -46 129 -38 163 19 33 55 17 103 -50 150 -73 53 -178 74
-253 51z"/>
<path d="M4310 4111 c-118 -36 -185 -116 -156 -185 28 -68 93 -85 156 -41 58
40 88 41 140 6 67 -46 129 -38 163 19 33 55 17 103 -50 150 -73 53 -178 74
-253 51z"/>
<path d="M3874 3736 c-32 -32 -34 -37 -34 -107 l0 -74 -77 -77 c-71 -72 -78
-81 -78 -119 0 -34 6 -46 33 -70 52 -47 91 -41 160 25 l57 55 51 -49 c28 -27
63 -52 78 -56 65 -16 126 30 126 97 0 38 -6 47 -75 118 l-75 77 0 73 c0 70 -2
75 -34 107 -24 25 -43 34 -66 34 -23 0 -41 -9 -66 -34z"/>
</g>
</svg>
